<svg width="200" height="54" viewBox="0 0 200 54" fill="none" xmlns="http://www.w3.org/2000/svg">
<path d="M39.5 0.5V39.5H0.5V0.5H39.5Z" fill="#D9D9D9" stroke="black"/>
<path d="M6.65105 19.772C6.65105 17.2347 7.07639 15.2547 7.92705 13.832C8.79239 12.3947 10.2737 11.676 12.3711 11.676C14.4684 11.676 15.9424 12.3947 16.7931 13.832C17.6584 15.2547 18.0911 17.2347 18.0911 19.772C18.0911 22.3387 17.6584 24.348 16.7931 25.8C15.9424 27.2373 14.4684 27.956 12.3711 27.956C10.2737 27.956 8.79239 27.2373 7.92705 25.8C7.07639 24.348 6.65105 22.3387 6.65105 19.772ZM15.6271 19.772C15.6271 18.584 15.5464 17.5793 15.3851 16.758C15.2384 15.9367 14.9304 15.2693 14.4611 14.756C13.9917 14.228 13.2951 13.964 12.3711 13.964C11.4471 13.964 10.7504 14.228 10.2811 14.756C9.81172 15.2693 9.49639 15.9367 9.33505 16.758C9.18839 17.5793 9.11505 18.584 9.11505 19.772C9.11505 21.004 9.18839 22.038 9.33505 22.874C9.48172 23.71 9.78972 24.3847 10.2591 24.898C10.7431 25.4113 11.4471 25.668 12.3711 25.668C13.2951 25.668 13.9917 25.4113 14.4611 24.898C14.9451 24.3847 15.2604 23.71 15.4071 22.874C15.5537 22.038 15.6271 21.004 15.6271 19.772ZM20.4368 24.656V22.764L27.8288 12.16H30.8648V22.478H32.9108V24.656H30.8648V28H28.4008V24.656H20.4368ZM28.5108 14.712L23.3188 22.478H28.5108V14.712Z" fill="black"/>
<path d="M79.5 0.5V39.5H40.5V0.5H79.5Z" fill="#D9D9D9" stroke="black"/>
<path d="M50.2957 14.25V11.962H54.8717V28H52.3417V14.25H50.2957ZM59.7031 24.59C61.1111 23.3727 62.2184 22.3753 63.0251 21.598C63.8464 20.806 64.5284 19.9847 65.0711 19.134C65.6137 18.2833 65.8851 17.4327 65.8851 16.582C65.8851 15.702 65.6724 15.0127 65.2471 14.514C64.8364 14.0153 64.1837 13.766 63.2891 13.766C62.4237 13.766 61.7491 14.0447 61.2651 14.602C60.7957 15.1447 60.5464 15.878 60.5171 16.802H58.0971C58.1411 15.13 58.6397 13.854 59.5931 12.974C60.5611 12.0793 61.7857 11.632 63.2671 11.632C64.8657 11.632 66.1124 12.072 67.0071 12.952C67.9164 13.832 68.3711 15.0053 68.3711 16.472C68.3711 17.528 68.0997 18.5473 67.5571 19.53C67.0291 20.498 66.3911 21.3707 65.6431 22.148C64.9097 22.9107 63.9711 23.798 62.8271 24.81L61.8371 25.69H68.8111V27.78H58.1191V25.954L59.7031 24.59Z" fill="black"/>
<path d="M119.5 0.5V39.5H80.5V0.5H119.5Z" fill="#D9D9D9" stroke="black"/>
<path d="M89.4274 19.772C89.4274 17.2347 89.8528 15.2547 90.7034 13.832C91.5688 12.3947 93.0501 11.676 95.1474 11.676C97.2448 11.676 98.7188 12.3947 99.5694 13.832C100.435 15.2547 100.867 17.2347 100.867 19.772C100.867 22.3387 100.435 24.348 99.5694 25.8C98.7188 27.2373 97.2448 27.956 95.1474 27.956C93.0501 27.956 91.5688 27.2373 90.7034 25.8C89.8528 24.348 89.4274 22.3387 89.4274 19.772ZM98.4034 19.772C98.4034 18.584 98.3228 17.5793 98.1614 16.758C98.0148 15.9367 97.7068 15.2693 97.2374 14.756C96.7681 14.228 96.0714 13.964 95.1474 13.964C94.2234 13.964 93.5268 14.228 93.0574 14.756C92.5881 15.2693 92.2728 15.9367 92.1114 16.758C91.9648 17.5793 91.8914 18.584 91.8914 19.772C91.8914 21.004 91.9648 22.038 92.1114 22.874C92.2581 23.71 92.5661 24.3847 93.0354 24.898C93.5194 25.4113 94.2234 25.668 95.1474 25.668C96.0714 25.668 96.7681 25.4113 97.2374 24.898C97.7214 24.3847 98.0368 23.71 98.1834 22.874C98.3301 22.038 98.4034 21.004 98.4034 19.772ZM103.191 14.25V11.962H107.767V28H105.237V14.25H103.191Z" fill="black"/>
<path d="M159.5 0.5V39.5H120.5V0.5H159.5Z" fill="#D9D9D9" stroke="black"/>
<path d="M126.359 24.656V22.764L133.751 12.16H136.787V22.478H138.833V24.656H136.787V28H134.323V24.656H126.359ZM134.433 14.712L129.241 22.478H134.433V14.712ZM140.867 15.922C140.955 14.558 141.475 13.4947 142.429 12.732C143.397 11.9693 144.629 11.588 146.125 11.588C147.151 11.588 148.039 11.7713 148.787 12.138C149.535 12.5047 150.099 13.0033 150.481 13.634C150.862 14.2647 151.053 14.976 151.053 15.768C151.053 16.6773 150.811 17.4547 150.327 18.1C149.843 18.7453 149.263 19.178 148.589 19.398V19.486C149.454 19.75 150.129 20.234 150.613 20.938C151.097 21.6273 151.339 22.5147 151.339 23.6C151.339 24.4653 151.141 25.2353 150.745 25.91C150.349 26.5847 149.762 27.12 148.985 27.516C148.207 27.8973 147.276 28.088 146.191 28.088C144.607 28.088 143.301 27.6847 142.275 26.878C141.263 26.0567 140.72 24.8833 140.647 23.358H143.067C143.125 24.1353 143.426 24.7733 143.969 25.272C144.511 25.756 145.245 25.998 146.169 25.998C147.063 25.998 147.753 25.756 148.237 25.272C148.721 24.7733 148.963 24.1353 148.963 23.358C148.963 22.3313 148.633 21.6053 147.973 21.18C147.327 20.74 146.33 20.52 144.981 20.52H144.409V18.452H145.003C146.191 18.4373 147.093 18.2393 147.709 17.858C148.339 17.4767 148.655 16.8753 148.655 16.054C148.655 15.35 148.427 14.7927 147.973 14.382C147.518 13.9567 146.873 13.744 146.037 13.744C145.215 13.744 144.577 13.9567 144.123 14.382C143.668 14.7927 143.397 15.306 143.309 15.922H140.867Z" fill="black"/>
<path d="M199.5 0.5V39.5H160.5V0.5H199.5Z" fill="#D9D9D9" stroke="black"/>
<path d="M169.13 14.25V11.962H173.706V28H171.176V14.25H169.13ZM179.857 19.618C178.332 18.8553 177.569 17.6527 177.569 16.01C177.569 15.218 177.767 14.492 178.163 13.832C178.559 13.172 179.153 12.6513 179.945 12.27C180.737 11.874 181.705 11.676 182.849 11.676C183.978 11.676 184.939 11.874 185.731 12.27C186.538 12.6513 187.139 13.172 187.535 13.832C187.931 14.492 188.129 15.218 188.129 16.01C188.129 16.8313 187.916 17.5573 187.491 18.188C187.08 18.804 186.53 19.2807 185.841 19.618C186.677 19.926 187.337 20.432 187.821 21.136C188.305 21.8253 188.547 22.6393 188.547 23.578C188.547 24.5313 188.305 25.3747 187.821 26.108C187.337 26.8413 186.662 27.406 185.797 27.802C184.932 28.198 183.949 28.396 182.849 28.396C181.749 28.396 180.766 28.198 179.901 27.802C179.05 27.406 178.383 26.8413 177.899 26.108C177.415 25.3747 177.173 24.5313 177.173 23.578C177.173 22.6247 177.415 21.8033 177.899 21.114C178.383 20.4247 179.036 19.926 179.857 19.618ZM185.731 16.318C185.731 15.4967 185.474 14.866 184.961 14.426C184.448 13.986 183.744 13.766 182.849 13.766C181.969 13.766 181.272 13.986 180.759 14.426C180.246 14.866 179.989 15.504 179.989 16.34C179.989 17.0733 180.253 17.6747 180.781 18.144C181.324 18.5987 182.013 18.826 182.849 18.826C183.685 18.826 184.374 18.5913 184.917 18.122C185.46 17.6527 185.731 17.0513 185.731 16.318ZM182.849 20.718C181.881 20.718 181.089 20.96 180.473 21.444C179.872 21.9133 179.571 22.5953 179.571 23.49C179.571 24.326 179.864 25.008 180.451 25.536C181.038 26.0493 181.837 26.306 182.849 26.306C183.846 26.306 184.631 26.042 185.203 25.514C185.79 24.986 186.083 24.3113 186.083 23.49C186.083 22.61 185.782 21.928 185.181 21.444C184.594 20.96 183.817 20.718 182.849 20.718Z" fill="black"/>
<line x1="18.5" y1="53.025" x2="18.5" y2="42.9751" stroke="#0CA1E3"/>
<line x1="18.9997" y1="52.525" x2="61.4997" y2="52.5" stroke="#0CA1E3"/>
<line x1="62" y1="53.0499" x2="62" y2="43" stroke="#0CA1E3"/>
<path d="M62 42L64.5981 46.5H59.4019L62 42Z" fill="#0CA1E3"/>
</svg>
