<svg width="200" height="59" viewBox="0 0 200 59" fill="none" xmlns="http://www.w3.org/2000/svg">
<path d="M39.5 0.5V39.5H0.5V0.5H39.5Z" fill="#D9D9D9" stroke="black"/>
<path d="M6.65105 19.772C6.65105 17.2347 7.07639 15.2547 7.92705 13.832C8.79239 12.3947 10.2737 11.676 12.3711 11.676C14.4684 11.676 15.9424 12.3947 16.7931 13.832C17.6584 15.2547 18.0911 17.2347 18.0911 19.772C18.0911 22.3387 17.6584 24.348 16.7931 25.8C15.9424 27.2373 14.4684 27.956 12.3711 27.956C10.2737 27.956 8.79239 27.2373 7.92705 25.8C7.07639 24.348 6.65105 22.3387 6.65105 19.772ZM15.6271 19.772C15.6271 18.584 15.5464 17.5793 15.3851 16.758C15.2384 15.9367 14.9304 15.2693 14.4611 14.756C13.9917 14.228 13.2951 13.964 12.3711 13.964C11.4471 13.964 10.7504 14.228 10.2811 14.756C9.81172 15.2693 9.49639 15.9367 9.33505 16.758C9.18839 17.5793 9.11505 18.584 9.11505 19.772C9.11505 21.004 9.18839 22.038 9.33505 22.874C9.48172 23.71 9.78972 24.3847 10.2591 24.898C10.7431 25.4113 11.4471 25.668 12.3711 25.668C13.2951 25.668 13.9917 25.4113 14.4611 24.898C14.9451 24.3847 15.2604 23.71 15.4071 22.874C15.5537 22.038 15.6271 21.004 15.6271 19.772ZM20.4368 24.656V22.764L27.8288 12.16H30.8648V22.478H32.9108V24.656H30.8648V28H28.4008V24.656H20.4368ZM28.5108 14.712L23.3188 22.478H28.5108V14.712Z" fill="black"/>
<path d="M79.5 0.5V39.5H40.5V0.5H79.5Z" fill="#D9D9D9" stroke="black"/>
<path d="M50.2957 14.25V11.962H54.8717V28H52.3417V14.25H50.2957ZM59.7031 24.59C61.1111 23.3727 62.2184 22.3753 63.0251 21.598C63.8464 20.806 64.5284 19.9847 65.0711 19.134C65.6137 18.2833 65.8851 17.4327 65.8851 16.582C65.8851 15.702 65.6724 15.0127 65.2471 14.514C64.8364 14.0153 64.1837 13.766 63.2891 13.766C62.4237 13.766 61.7491 14.0447 61.2651 14.602C60.7957 15.1447 60.5464 15.878 60.5171 16.802H58.0971C58.1411 15.13 58.6397 13.854 59.5931 12.974C60.5611 12.0793 61.7857 11.632 63.2671 11.632C64.8657 11.632 66.1124 12.072 67.0071 12.952C67.9164 13.832 68.3711 15.0053 68.3711 16.472C68.3711 17.528 68.0997 18.5473 67.5571 19.53C67.0291 20.498 66.3911 21.3707 65.6431 22.148C64.9097 22.9107 63.9711 23.798 62.8271 24.81L61.8371 25.69H68.8111V27.78H58.1191V25.954L59.7031 24.59Z" fill="black"/>
<path d="M119.5 0.5V39.5H80.5V0.5H119.5Z" fill="#D9D9D9" stroke="black"/>
<path d="M89.4274 19.772C89.4274 17.2347 89.8528 15.2547 90.7034 13.832C91.5688 12.3947 93.0501 11.676 95.1474 11.676C97.2448 11.676 98.7188 12.3947 99.5694 13.832C100.435 15.2547 100.867 17.2347 100.867 19.772C100.867 22.3387 100.435 24.348 99.5694 25.8C98.7188 27.2373 97.2448 27.956 95.1474 27.956C93.0501 27.956 91.5688 27.2373 90.7034 25.8C89.8528 24.348 89.4274 22.3387 89.4274 19.772ZM98.4034 19.772C98.4034 18.584 98.3228 17.5793 98.1614 16.758C98.0148 15.9367 97.7068 15.2693 97.2374 14.756C96.7681 14.228 96.0714 13.964 95.1474 13.964C94.2234 13.964 93.5268 14.228 93.0574 14.756C92.5881 15.2693 92.2728 15.9367 92.1114 16.758C91.9648 17.5793 91.8914 18.584 91.8914 19.772C91.8914 21.004 91.9648 22.038 92.1114 22.874C92.2581 23.71 92.5661 24.3847 93.0354 24.898C93.5194 25.4113 94.2234 25.668 95.1474 25.668C96.0714 25.668 96.7681 25.4113 97.2374 24.898C97.7214 24.3847 98.0368 23.71 98.1834 22.874C98.3301 22.038 98.4034 21.004 98.4034 19.772ZM103.191 14.25V11.962H107.767V28H105.237V14.25H103.191Z" fill="black"/>
<path d="M159.5 0.5V39.5H120.5V0.5H159.5Z" fill="#D9D9D9" stroke="black"/>
<path d="M126.359 24.656V22.764L133.751 12.16H136.787V22.478H138.833V24.656H136.787V28H134.323V24.656H126.359ZM134.433 14.712L129.241 22.478H134.433V14.712ZM140.867 15.922C140.955 14.558 141.475 13.4947 142.429 12.732C143.397 11.9693 144.629 11.588 146.125 11.588C147.151 11.588 148.039 11.7713 148.787 12.138C149.535 12.5047 150.099 13.0033 150.481 13.634C150.862 14.2647 151.053 14.976 151.053 15.768C151.053 16.6773 150.811 17.4547 150.327 18.1C149.843 18.7453 149.263 19.178 148.589 19.398V19.486C149.454 19.75 150.129 20.234 150.613 20.938C151.097 21.6273 151.339 22.5147 151.339 23.6C151.339 24.4653 151.141 25.2353 150.745 25.91C150.349 26.5847 149.762 27.12 148.985 27.516C148.207 27.8973 147.276 28.088 146.191 28.088C144.607 28.088 143.301 27.6847 142.275 26.878C141.263 26.0567 140.72 24.8833 140.647 23.358H143.067C143.125 24.1353 143.426 24.7733 143.969 25.272C144.511 25.756 145.245 25.998 146.169 25.998C147.063 25.998 147.753 25.756 148.237 25.272C148.721 24.7733 148.963 24.1353 148.963 23.358C148.963 22.3313 148.633 21.6053 147.973 21.18C147.327 20.74 146.33 20.52 144.981 20.52H144.409V18.452H145.003C146.191 18.4373 147.093 18.2393 147.709 17.858C148.339 17.4767 148.655 16.8753 148.655 16.054C148.655 15.35 148.427 14.7927 147.973 14.382C147.518 13.9567 146.873 13.744 146.037 13.744C145.215 13.744 144.577 13.9567 144.123 14.382C143.668 14.7927 143.397 15.306 143.309 15.922H140.867Z" fill="black"/>
<path d="M199.5 0.5V39.5H160.5V0.5H199.5Z" fill="#D9D9D9" stroke="black"/>
<path d="M169.13 14.25V11.962H173.706V28H171.176V14.25H169.13ZM179.857 19.618C178.332 18.8553 177.569 17.6527 177.569 16.01C177.569 15.218 177.767 14.492 178.163 13.832C178.559 13.172 179.153 12.6513 179.945 12.27C180.737 11.874 181.705 11.676 182.849 11.676C183.978 11.676 184.939 11.874 185.731 12.27C186.538 12.6513 187.139 13.172 187.535 13.832C187.931 14.492 188.129 15.218 188.129 16.01C188.129 16.8313 187.916 17.5573 187.491 18.188C187.08 18.804 186.53 19.2807 185.841 19.618C186.677 19.926 187.337 20.432 187.821 21.136C188.305 21.8253 188.547 22.6393 188.547 23.578C188.547 24.5313 188.305 25.3747 187.821 26.108C187.337 26.8413 186.662 27.406 185.797 27.802C184.932 28.198 183.949 28.396 182.849 28.396C181.749 28.396 180.766 28.198 179.901 27.802C179.05 27.406 178.383 26.8413 177.899 26.108C177.415 25.3747 177.173 24.5313 177.173 23.578C177.173 22.6247 177.415 21.8033 177.899 21.114C178.383 20.4247 179.036 19.926 179.857 19.618ZM185.731 16.318C185.731 15.4967 185.474 14.866 184.961 14.426C184.448 13.986 183.744 13.766 182.849 13.766C181.969 13.766 181.272 13.986 180.759 14.426C180.246 14.866 179.989 15.504 179.989 16.34C179.989 17.0733 180.253 17.6747 180.781 18.144C181.324 18.5987 182.013 18.826 182.849 18.826C183.685 18.826 184.374 18.5913 184.917 18.122C185.46 17.6527 185.731 17.0513 185.731 16.318ZM182.849 20.718C181.881 20.718 181.089 20.96 180.473 21.444C179.872 21.9133 179.571 22.5953 179.571 23.49C179.571 24.326 179.864 25.008 180.451 25.536C181.038 26.0493 181.837 26.306 182.849 26.306C183.846 26.306 184.631 26.042 185.203 25.514C185.79 24.986 186.083 24.3113 186.083 23.49C186.083 22.61 185.782 21.928 185.181 21.444C184.594 20.96 183.817 20.718 182.849 20.718Z" fill="black"/>
<line x1="0.5" y1="48" x2="0.5" y2="40" stroke="#0CA1E3"/>
<line x1="40.5" y1="48" x2="40.5" y2="40" stroke="#0CA1E3"/>
<line x1="80.5" y1="46" x2="80.5" y2="42" stroke="#0CA1E3"/>
<line x1="120.5" y1="46" x2="120.5" y2="42" stroke="#0CA1E3"/>
<line x1="160.5" y1="46" x2="160.5" y2="42" stroke="#0CA1E3"/>
<line x1="199.5" y1="48" x2="199.5" y2="40" stroke="#0CA1E3"/>
<line y1="-0.5" x2="200" y2="-0.5" transform="matrix(1 0 0 -1 0 43)" stroke="#0CA1E3"/>
<path d="M6.08004 54.07C5.61337 54.07 5.19337 53.99 4.82004 53.83C4.44671 53.6633 4.15337 53.43 3.94004 53.13C3.72671 52.83 3.62004 52.48 3.62004 52.08H4.84004C4.86671 52.38 4.98337 52.6267 5.19004 52.82C5.40337 53.0133 5.70004 53.11 6.08004 53.11C6.47337 53.11 6.78004 53.0167 7.00004 52.83C7.22004 52.6367 7.33004 52.39 7.33004 52.09C7.33004 51.8567 7.26004 51.6667 7.12004 51.52C6.98671 51.3733 6.81671 51.26 6.61004 51.18C6.41004 51.1 6.13004 51.0133 5.77004 50.92C5.31671 50.8 4.94671 50.68 4.66004 50.56C4.38004 50.4333 4.14004 50.24 3.94004 49.98C3.74004 49.72 3.64004 49.3733 3.64004 48.94C3.64004 48.54 3.74004 48.19 3.94004 47.89C4.14004 47.59 4.42004 47.36 4.78004 47.2C5.14004 47.04 5.55671 46.96 6.03004 46.96C6.70337 46.96 7.25337 47.13 7.68004 47.47C8.11337 47.8033 8.35337 48.2633 8.40004 48.85H7.14004C7.12004 48.5967 7.00004 48.38 6.78004 48.2C6.56004 48.02 6.27004 47.93 5.91004 47.93C5.58337 47.93 5.31671 48.0133 5.11004 48.18C4.90337 48.3467 4.80004 48.5867 4.80004 48.9C4.80004 49.1133 4.86337 49.29 4.99004 49.43C5.12337 49.5633 5.29004 49.67 5.49004 49.75C5.69004 49.83 5.96337 49.9167 6.31004 50.01C6.77004 50.1367 7.14337 50.2633 7.43004 50.39C7.72337 50.5167 7.97004 50.7133 8.17004 50.98C8.37671 51.24 8.48004 51.59 8.48004 52.03C8.48004 52.3833 8.38337 52.7167 8.19004 53.03C8.00337 53.3433 7.72671 53.5967 7.36004 53.79C7.00004 53.9767 6.57337 54.07 6.08004 54.07ZM12.2152 54.09C11.6952 54.09 11.2252 53.9733 10.8052 53.74C10.3852 53.5 10.0552 53.1667 9.8152 52.74C9.5752 52.3067 9.4552 51.8067 9.4552 51.24C9.4552 50.68 9.57853 50.1833 9.8252 49.75C10.0719 49.3167 10.4085 48.9833 10.8352 48.75C11.2619 48.5167 11.7385 48.4 12.2652 48.4C12.7919 48.4 13.2685 48.5167 13.6952 48.75C14.1219 48.9833 14.4585 49.3167 14.7052 49.75C14.9519 50.1833 15.0752 50.68 15.0752 51.24C15.0752 51.8 14.9485 52.2967 14.6952 52.73C14.4419 53.1633 14.0952 53.5 13.6552 53.74C13.2219 53.9733 12.7419 54.09 12.2152 54.09ZM12.2152 53.1C12.5085 53.1 12.7819 53.03 13.0352 52.89C13.2952 52.75 13.5052 52.54 13.6652 52.26C13.8252 51.98 13.9052 51.64 13.9052 51.24C13.9052 50.84 13.8285 50.5033 13.6752 50.23C13.5219 49.95 13.3185 49.74 13.0652 49.6C12.8119 49.46 12.5385 49.39 12.2452 49.39C11.9519 49.39 11.6785 49.46 11.4252 49.6C11.1785 49.74 10.9819 49.95 10.8352 50.23C10.6885 50.5033 10.6152 50.84 10.6152 51.24C10.6152 51.8333 10.7652 52.2933 11.0652 52.62C11.3719 52.94 11.7552 53.1 12.2152 53.1ZM17.3421 49.29C17.5088 49.01 17.7288 48.7933 18.0021 48.64C18.2821 48.48 18.6121 48.4 18.9921 48.4V49.58H18.7021C18.2555 49.58 17.9155 49.6933 17.6821 49.92C17.4555 50.1467 17.3421 50.54 17.3421 51.1V54H16.2021V48.49H17.3421V49.29ZM21.37 49.42V52.47C21.37 52.6767 21.4167 52.8267 21.51 52.92C21.61 53.0067 21.7767 53.05 22.01 53.05H22.71V54H21.81C21.2967 54 20.9034 53.88 20.63 53.64C20.3567 53.4 20.22 53.01 20.22 52.47V49.42H19.57V48.49H20.22V47.12H21.37V48.49H22.71V49.42H21.37ZM28.8107 51.11C28.8107 51.3167 28.7974 51.5033 28.7707 51.67H24.5607C24.5941 52.11 24.7574 52.4633 25.0507 52.73C25.3441 52.9967 25.7041 53.13 26.1307 53.13C26.7441 53.13 27.1774 52.8733 27.4307 52.36H28.6607C28.4941 52.8667 28.1907 53.2833 27.7507 53.61C27.3174 53.93 26.7774 54.09 26.1307 54.09C25.6041 54.09 25.1307 53.9733 24.7107 53.74C24.2974 53.5 23.9707 53.1667 23.7307 52.74C23.4974 52.3067 23.3807 51.8067 23.3807 51.24C23.3807 50.6733 23.4941 50.1767 23.7207 49.75C23.9541 49.3167 24.2774 48.9833 24.6907 48.75C25.1107 48.5167 25.5907 48.4 26.1307 48.4C26.6507 48.4 27.1141 48.5133 27.5207 48.74C27.9274 48.9667 28.2441 49.2867 28.4707 49.7C28.6974 50.1067 28.8107 50.5767 28.8107 51.11ZM27.6207 50.75C27.6141 50.33 27.4641 49.9933 27.1707 49.74C26.8774 49.4867 26.5141 49.36 26.0807 49.36C25.6874 49.36 25.3507 49.4867 25.0707 49.74C24.7907 49.9867 24.6241 50.3233 24.5707 50.75H27.6207ZM29.5526 51.22C29.5526 50.6667 29.666 50.1767 29.8926 49.75C30.126 49.3233 30.4393 48.9933 30.8326 48.76C31.2326 48.52 31.676 48.4 32.1626 48.4C32.5226 48.4 32.876 48.48 33.2226 48.64C33.576 48.7933 33.856 49 34.0626 49.26V46.6H35.2126V54H34.0626V53.17C33.876 53.4367 33.616 53.6567 33.2826 53.83C32.956 54.0033 32.5793 54.09 32.1526 54.09C31.6726 54.09 31.2326 53.97 30.8326 53.73C30.4393 53.4833 30.126 53.1433 29.8926 52.71C29.666 52.27 29.5526 51.7733 29.5526 51.22ZM34.0626 51.24C34.0626 50.86 33.9826 50.53 33.8226 50.25C33.6693 49.97 33.466 49.7567 33.2126 49.61C32.9593 49.4633 32.686 49.39 32.3926 49.39C32.0993 49.39 31.826 49.4633 31.5726 49.61C31.3193 49.75 31.1126 49.96 30.9526 50.24C30.7993 50.5133 30.7226 50.84 30.7226 51.22C30.7226 51.6 30.7993 51.9333 30.9526 52.22C31.1126 52.5067 31.3193 52.7267 31.5726 52.88C31.8326 53.0267 32.106 53.1 32.3926 53.1C32.686 53.1 32.9593 53.0267 33.2126 52.88C33.466 52.7333 33.6693 52.52 33.8226 52.24C33.9826 51.9533 34.0626 51.62 34.0626 51.24Z" fill="#0CA1E3"/>
<path d="M97.0675 48.05V52.48C97.0675 53.0067 97.2042 53.4033 97.4775 53.67C97.7575 53.9367 98.1442 54.07 98.6375 54.07C99.1375 54.07 99.5242 53.9367 99.7975 53.67C100.078 53.4033 100.218 53.0067 100.218 52.48V48.05H101.358V52.46C101.358 53.0267 101.234 53.5067 100.988 53.9C100.741 54.2933 100.411 54.5867 99.9975 54.78C99.5842 54.9733 99.1275 55.07 98.6275 55.07C98.1275 55.07 97.6708 54.9733 97.2575 54.78C96.8508 54.5867 96.5275 54.2933 96.2875 53.9C96.0475 53.5067 95.9275 53.0267 95.9275 52.46V48.05H97.0675ZM105.622 49.4C106.055 49.4 106.442 49.49 106.782 49.67C107.128 49.85 107.398 50.1167 107.592 50.47C107.785 50.8233 107.882 51.25 107.882 51.75V55H106.752V51.92C106.752 51.4267 106.628 51.05 106.382 50.79C106.135 50.5233 105.798 50.39 105.372 50.39C104.945 50.39 104.605 50.5233 104.352 50.79C104.105 51.05 103.982 51.4267 103.982 51.92V55H102.842V49.49H103.982V50.12C104.168 49.8933 104.405 49.7167 104.692 49.59C104.985 49.4633 105.295 49.4 105.622 49.4ZM111.336 55.09C110.903 55.09 110.513 55.0133 110.166 54.86C109.826 54.7 109.556 54.4867 109.356 54.22C109.156 53.9467 109.049 53.6433 109.036 53.31H110.216C110.236 53.5433 110.346 53.74 110.546 53.9C110.753 54.0533 111.009 54.13 111.316 54.13C111.636 54.13 111.883 54.07 112.056 53.95C112.236 53.8233 112.326 53.6633 112.326 53.47C112.326 53.2633 112.226 53.11 112.026 53.01C111.833 52.91 111.523 52.8 111.096 52.68C110.683 52.5667 110.346 52.4567 110.086 52.35C109.826 52.2433 109.599 52.08 109.406 51.86C109.219 51.64 109.126 51.35 109.126 50.99C109.126 50.6967 109.213 50.43 109.386 50.19C109.559 49.9433 109.806 49.75 110.126 49.61C110.453 49.47 110.826 49.4 111.246 49.4C111.873 49.4 112.376 49.56 112.756 49.88C113.143 50.1933 113.349 50.6233 113.376 51.17H112.236C112.216 50.9233 112.116 50.7267 111.936 50.58C111.756 50.4333 111.513 50.36 111.206 50.36C110.906 50.36 110.676 50.4167 110.516 50.53C110.356 50.6433 110.276 50.7933 110.276 50.98C110.276 51.1267 110.329 51.25 110.436 51.35C110.543 51.45 110.673 51.53 110.826 51.59C110.979 51.6433 111.206 51.7133 111.506 51.8C111.906 51.9067 112.233 52.0167 112.486 52.13C112.746 52.2367 112.969 52.3967 113.156 52.61C113.343 52.8233 113.439 53.1067 113.446 53.46C113.446 53.7733 113.359 54.0533 113.186 54.3C113.013 54.5467 112.766 54.74 112.446 54.88C112.133 55.02 111.763 55.09 111.336 55.09ZM117.068 55.09C116.548 55.09 116.078 54.9733 115.658 54.74C115.238 54.5 114.908 54.1667 114.668 53.74C114.428 53.3067 114.308 52.8067 114.308 52.24C114.308 51.68 114.431 51.1833 114.678 50.75C114.924 50.3167 115.261 49.9833 115.688 49.75C116.114 49.5167 116.591 49.4 117.118 49.4C117.644 49.4 118.121 49.5167 118.548 49.75C118.974 49.9833 119.311 50.3167 119.558 50.75C119.804 51.1833 119.928 51.68 119.928 52.24C119.928 52.8 119.801 53.2967 119.548 53.73C119.294 54.1633 118.948 54.5 118.508 54.74C118.074 54.9733 117.594 55.09 117.068 55.09ZM117.068 54.1C117.361 54.1 117.634 54.03 117.888 53.89C118.148 53.75 118.358 53.54 118.518 53.26C118.678 52.98 118.758 52.64 118.758 52.24C118.758 51.84 118.681 51.5033 118.528 51.23C118.374 50.95 118.171 50.74 117.918 50.6C117.664 50.46 117.391 50.39 117.098 50.39C116.804 50.39 116.531 50.46 116.278 50.6C116.031 50.74 115.834 50.95 115.688 51.23C115.541 51.5033 115.468 51.84 115.468 52.24C115.468 52.8333 115.618 53.2933 115.918 53.62C116.224 53.94 116.608 54.1 117.068 54.1ZM122.195 50.29C122.361 50.01 122.581 49.7933 122.855 49.64C123.135 49.48 123.465 49.4 123.845 49.4V50.58H123.555C123.108 50.58 122.768 50.6933 122.535 50.92C122.308 51.1467 122.195 51.54 122.195 52.1V55H121.055V49.49H122.195V50.29ZM126.223 50.42V53.47C126.223 53.6767 126.269 53.8267 126.363 53.92C126.463 54.0067 126.629 54.05 126.863 54.05H127.563V55H126.663C126.149 55 125.756 54.88 125.483 54.64C125.209 54.4 125.073 54.01 125.073 53.47V50.42H124.423V49.49H125.073V48.12H126.223V49.49H127.563V50.42H126.223ZM133.663 52.11C133.663 52.3167 133.65 52.5033 133.623 52.67H129.413C129.447 53.11 129.61 53.4633 129.903 53.73C130.197 53.9967 130.557 54.13 130.983 54.13C131.597 54.13 132.03 53.8733 132.283 53.36H133.513C133.347 53.8667 133.043 54.2833 132.603 54.61C132.17 54.93 131.63 55.09 130.983 55.09C130.457 55.09 129.983 54.9733 129.563 54.74C129.15 54.5 128.823 54.1667 128.583 53.74C128.35 53.3067 128.233 52.8067 128.233 52.24C128.233 51.6733 128.347 51.1767 128.573 50.75C128.807 50.3167 129.13 49.9833 129.543 49.75C129.963 49.5167 130.443 49.4 130.983 49.4C131.503 49.4 131.967 49.5133 132.373 49.74C132.78 49.9667 133.097 50.2867 133.323 50.7C133.55 51.1067 133.663 51.5767 133.663 52.11ZM132.473 51.75C132.467 51.33 132.317 50.9933 132.023 50.74C131.73 50.4867 131.367 50.36 130.933 50.36C130.54 50.36 130.203 50.4867 129.923 50.74C129.643 50.9867 129.477 51.3233 129.423 51.75H132.473ZM134.405 52.22C134.405 51.6667 134.518 51.1767 134.745 50.75C134.978 50.3233 135.292 49.9933 135.685 49.76C136.085 49.52 136.528 49.4 137.015 49.4C137.375 49.4 137.728 49.48 138.075 49.64C138.428 49.7933 138.708 50 138.915 50.26V47.6H140.065V55H138.915V54.17C138.728 54.4367 138.468 54.6567 138.135 54.83C137.808 55.0033 137.432 55.09 137.005 55.09C136.525 55.09 136.085 54.97 135.685 54.73C135.292 54.4833 134.978 54.1433 134.745 53.71C134.518 53.27 134.405 52.7733 134.405 52.22ZM138.915 52.24C138.915 51.86 138.835 51.53 138.675 51.25C138.522 50.97 138.318 50.7567 138.065 50.61C137.812 50.4633 137.538 50.39 137.245 50.39C136.952 50.39 136.678 50.4633 136.425 50.61C136.172 50.75 135.965 50.96 135.805 51.24C135.652 51.5133 135.575 51.84 135.575 52.22C135.575 52.6 135.652 52.9333 135.805 53.22C135.965 53.5067 136.172 53.7267 136.425 53.88C136.685 54.0267 136.958 54.1 137.245 54.1C137.538 54.1 137.812 54.0267 138.065 53.88C138.318 53.7333 138.522 53.52 138.675 53.24C138.835 52.9533 138.915 52.62 138.915 52.24Z" fill="#0CA1E3"/>
</svg>
