<svg width="163" height="65" viewBox="0 0 163 65" fill="none" xmlns="http://www.w3.org/2000/svg">
<rect x="5.5" y="0.5" width="149" height="29" stroke="black"/>
<rect x="5.5" y="0.5" width="29" height="29" fill="#D9D9D9" stroke="black"/>
<path d="M10.1553 15.016C10.1553 13.1707 10.4646 11.7307 11.0833 10.696C11.7126 9.65067 12.79 9.128 14.3153 9.128C15.8406 9.128 16.9126 9.65067 17.5313 10.696C18.1606 11.7307 18.4753 13.1707 18.4753 15.016C18.4753 16.8827 18.1606 18.344 17.5313 19.4C16.9126 20.4453 15.8406 20.968 14.3153 20.968C12.79 20.968 11.7126 20.4453 11.0833 19.4C10.4646 18.344 10.1553 16.8827 10.1553 15.016ZM16.6833 15.016C16.6833 14.152 16.6246 13.4213 16.5073 12.824C16.4006 12.2267 16.1766 11.7413 15.8353 11.368C15.494 10.984 14.9873 10.792 14.3153 10.792C13.6433 10.792 13.1366 10.984 12.7953 11.368C12.454 11.7413 12.2246 12.2267 12.1073 12.824C12.0006 13.4213 11.9473 14.152 11.9473 15.016C11.9473 15.912 12.0006 16.664 12.1073 17.272C12.214 17.88 12.438 18.3707 12.7793 18.744C13.1313 19.1173 13.6433 19.304 14.3153 19.304C14.9873 19.304 15.494 19.1173 15.8353 18.744C16.1873 18.3707 16.4166 17.88 16.5233 17.272C16.63 16.664 16.6833 15.912 16.6833 15.016ZM20.1813 18.568V17.192L25.5573 9.48H27.7653V16.984H29.2533V18.568H27.7653V21H25.9733V18.568H20.1813ZM26.0533 11.336L22.2773 16.984H26.0533V11.336Z" fill="black"/>
<rect x="35.5" y="0.5" width="29" height="29" fill="#D9D9D9" stroke="black"/>
<path d="M42.8059 11V9.336H46.1339V21H44.2939V11H42.8059ZM49.6477 18.52C50.6717 17.6347 51.477 16.9093 52.0637 16.344C52.661 15.768 53.157 15.1707 53.5517 14.552C53.9464 13.9333 54.1437 13.3147 54.1437 12.696C54.1437 12.056 53.989 11.5547 53.6797 11.192C53.381 10.8293 52.9064 10.648 52.2557 10.648C51.6264 10.648 51.1357 10.8507 50.7837 11.256C50.4424 11.6507 50.261 12.184 50.2397 12.856H48.4797C48.5117 11.64 48.8744 10.712 49.5677 10.072C50.2717 9.42133 51.1624 9.096 52.2397 9.096C53.4024 9.096 54.309 9.416 54.9597 10.056C55.621 10.696 55.9517 11.5493 55.9517 12.616C55.9517 13.384 55.7544 14.1253 55.3597 14.84C54.9757 15.544 54.5117 16.1787 53.9677 16.744C53.4344 17.2987 52.7517 17.944 51.9197 18.68L51.1997 19.32H56.2717V20.84H48.4957V19.512L49.6477 18.52Z" fill="black"/>
<rect x="65.5" y="0.5" width="29" height="29" fill="#D9D9D9" stroke="black"/>
<path d="M72.0381 15.016C72.0381 13.1707 72.3475 11.7307 72.9661 10.696C73.5955 9.65067 74.6728 9.128 76.1981 9.128C77.7235 9.128 78.7955 9.65067 79.4141 10.696C80.0435 11.7307 80.3581 13.1707 80.3581 15.016C80.3581 16.8827 80.0435 18.344 79.4141 19.4C78.7955 20.4453 77.7235 20.968 76.1981 20.968C74.6728 20.968 73.5955 20.4453 72.9661 19.4C72.3475 18.344 72.0381 16.8827 72.0381 15.016ZM78.5661 15.016C78.5661 14.152 78.5075 13.4213 78.3901 12.824C78.2835 12.2267 78.0595 11.7413 77.7181 11.368C77.3768 10.984 76.8701 10.792 76.1981 10.792C75.5261 10.792 75.0195 10.984 74.6781 11.368C74.3368 11.7413 74.1075 12.2267 73.9901 12.824C73.8835 13.4213 73.8301 14.152 73.8301 15.016C73.8301 15.912 73.8835 16.664 73.9901 17.272C74.0968 17.88 74.3208 18.3707 74.6621 18.744C75.0141 19.1173 75.5261 19.304 76.1981 19.304C76.8701 19.304 77.3768 19.1173 77.7181 18.744C78.0701 18.3707 78.2995 17.88 78.4061 17.272C78.5128 16.664 78.5661 15.912 78.5661 15.016ZM82.0481 11V9.336H85.3761V21H83.5361V11H82.0481Z" fill="black"/>
<rect x="95.5" y="0.5" width="29" height="29" fill="#D9D9D9" stroke="black"/>
<path d="M99.8063 18.568V17.192L105.182 9.48H107.39V16.984H108.878V18.568H107.39V21H105.598V18.568H99.8063ZM105.678 11.336L101.902 16.984H105.678V11.336ZM110.358 12.216C110.422 11.224 110.8 10.4507 111.494 9.896C112.198 9.34133 113.094 9.064 114.182 9.064C114.928 9.064 115.574 9.19733 116.118 9.464C116.662 9.73067 117.072 10.0933 117.35 10.552C117.627 11.0107 117.766 11.528 117.766 12.104C117.766 12.7653 117.59 13.3307 117.238 13.8C116.886 14.2693 116.464 14.584 115.974 14.744V14.808C116.603 15 117.094 15.352 117.446 15.864C117.798 16.3653 117.974 17.0107 117.974 17.8C117.974 18.4293 117.83 18.9893 117.542 19.48C117.254 19.9707 116.827 20.36 116.262 20.648C115.696 20.9253 115.019 21.064 114.23 21.064C113.078 21.064 112.128 20.7707 111.382 20.184C110.646 19.5867 110.251 18.7333 110.198 17.624H111.958C112 18.1893 112.219 18.6533 112.614 19.016C113.008 19.368 113.542 19.544 114.214 19.544C114.864 19.544 115.366 19.368 115.718 19.016C116.07 18.6533 116.246 18.1893 116.246 17.624C116.246 16.8773 116.006 16.3493 115.526 16.04C115.056 15.72 114.331 15.56 113.35 15.56H112.934V14.056H113.366C114.23 14.0453 114.886 13.9013 115.334 13.624C115.792 13.3467 116.022 12.9093 116.022 12.312C116.022 11.8 115.856 11.3947 115.526 11.096C115.195 10.7867 114.726 10.632 114.118 10.632C113.52 10.632 113.056 10.7867 112.726 11.096C112.395 11.3947 112.198 11.768 112.134 12.216H110.358Z" fill="black"/>
<rect x="125.5" y="0.5" width="29" height="29" fill="#D9D9D9" stroke="black"/>
<path d="M131.822 11V9.336H135.15V21H133.31V11H131.822ZM139.623 14.904C138.514 14.3493 137.959 13.4747 137.959 12.28C137.959 11.704 138.103 11.176 138.391 10.696C138.679 10.216 139.111 9.83733 139.687 9.56C140.263 9.272 140.967 9.128 141.799 9.128C142.621 9.128 143.319 9.272 143.895 9.56C144.482 9.83733 144.919 10.216 145.207 10.696C145.495 11.176 145.639 11.704 145.639 12.28C145.639 12.8773 145.485 13.4053 145.175 13.864C144.877 14.312 144.477 14.6587 143.975 14.904C144.583 15.128 145.063 15.496 145.415 16.008C145.767 16.5093 145.943 17.1013 145.943 17.784C145.943 18.4773 145.767 19.0907 145.415 19.624C145.063 20.1573 144.573 20.568 143.943 20.856C143.314 21.144 142.599 21.288 141.799 21.288C140.999 21.288 140.285 21.144 139.655 20.856C139.037 20.568 138.551 20.1573 138.199 19.624C137.847 19.0907 137.671 18.4773 137.671 17.784C137.671 17.0907 137.847 16.4933 138.199 15.992C138.551 15.4907 139.026 15.128 139.623 14.904ZM143.895 12.504C143.895 11.9067 143.709 11.448 143.335 11.128C142.962 10.808 142.45 10.648 141.799 10.648C141.159 10.648 140.653 10.808 140.279 11.128C139.906 11.448 139.719 11.912 139.719 12.52C139.719 13.0533 139.911 13.4907 140.295 13.832C140.69 14.1627 141.191 14.328 141.799 14.328C142.407 14.328 142.909 14.1573 143.303 13.816C143.698 13.4747 143.895 13.0373 143.895 12.504ZM141.799 15.704C141.095 15.704 140.519 15.88 140.071 16.232C139.634 16.5733 139.415 17.0693 139.415 17.72C139.415 18.328 139.629 18.824 140.055 19.208C140.482 19.5813 141.063 19.768 141.799 19.768C142.525 19.768 143.095 19.576 143.511 19.192C143.938 18.808 144.151 18.3173 144.151 17.72C144.151 17.08 143.933 16.584 143.495 16.232C143.069 15.88 142.503 15.704 141.799 15.704Z" fill="black"/>
<rect x="0.5" y="32.5" width="29" height="29" fill="#D9D9D9" stroke="black"/>
<path d="M5.15531 47.016C5.15531 45.1707 5.46465 43.7307 6.08331 42.696C6.71265 41.6507 7.78998 41.128 9.31531 41.128C10.8406 41.128 11.9126 41.6507 12.5313 42.696C13.1606 43.7307 13.4753 45.1707 13.4753 47.016C13.4753 48.8827 13.1606 50.344 12.5313 51.4C11.9126 52.4453 10.8406 52.968 9.31531 52.968C7.78998 52.968 6.71265 52.4453 6.08331 51.4C5.46465 50.344 5.15531 48.8827 5.15531 47.016ZM11.6833 47.016C11.6833 46.152 11.6246 45.4213 11.5073 44.824C11.4006 44.2267 11.1766 43.7413 10.8353 43.368C10.494 42.984 9.98731 42.792 9.31531 42.792C8.64331 42.792 8.13665 42.984 7.79531 43.368C7.45398 43.7413 7.22465 44.2267 7.10731 44.824C7.00065 45.4213 6.94731 46.152 6.94731 47.016C6.94731 47.912 7.00065 48.664 7.10731 49.272C7.21398 49.88 7.43798 50.3707 7.77931 50.744C8.13131 51.1173 8.64331 51.304 9.31531 51.304C9.98731 51.304 10.494 51.1173 10.8353 50.744C11.1873 50.3707 11.4166 49.88 11.5233 49.272C11.63 48.664 11.6833 47.912 11.6833 47.016ZM15.1813 50.568V49.192L20.5573 41.48H22.7653V48.984H24.2533V50.568H22.7653V53H20.9733V50.568H15.1813ZM21.0533 43.336L17.2773 48.984H21.0533V43.336Z" fill="black"/>
<rect x="30.5" y="32.5" width="29" height="29" fill="#D9D9D9" stroke="black"/>
<path d="M37.8059 43V41.336H41.1339V53H39.2939V43H37.8059ZM44.6477 50.52C45.6717 49.6347 46.477 48.9093 47.0637 48.344C47.661 47.768 48.157 47.1707 48.5517 46.552C48.9464 45.9333 49.1437 45.3147 49.1437 44.696C49.1437 44.056 48.989 43.5547 48.6797 43.192C48.381 42.8293 47.9064 42.648 47.2557 42.648C46.6264 42.648 46.1357 42.8507 45.7837 43.256C45.4424 43.6507 45.261 44.184 45.2397 44.856H43.4797C43.5117 43.64 43.8744 42.712 44.5677 42.072C45.2717 41.4213 46.1624 41.096 47.2397 41.096C48.4024 41.096 49.309 41.416 49.9597 42.056C50.621 42.696 50.9517 43.5493 50.9517 44.616C50.9517 45.384 50.7544 46.1253 50.3597 46.84C49.9757 47.544 49.5117 48.1787 48.9677 48.744C48.4344 49.2987 47.7517 49.944 46.9197 50.68L46.1997 51.32H51.2717V52.84H43.4957V51.512L44.6477 50.52Z" fill="black"/>
<rect x="67.5" y="32.5" width="29" height="29" fill="#D9D9D9" stroke="black"/>
<path d="M74.0381 47.016C74.0381 45.1707 74.3475 43.7307 74.9661 42.696C75.5955 41.6507 76.6728 41.128 78.1981 41.128C79.7235 41.128 80.7955 41.6507 81.4141 42.696C82.0435 43.7307 82.3581 45.1707 82.3581 47.016C82.3581 48.8827 82.0435 50.344 81.4141 51.4C80.7955 52.4453 79.7235 52.968 78.1981 52.968C76.6728 52.968 75.5955 52.4453 74.9661 51.4C74.3475 50.344 74.0381 48.8827 74.0381 47.016ZM80.5661 47.016C80.5661 46.152 80.5075 45.4213 80.3901 44.824C80.2835 44.2267 80.0595 43.7413 79.7181 43.368C79.3768 42.984 78.8701 42.792 78.1981 42.792C77.5261 42.792 77.0195 42.984 76.6781 43.368C76.3368 43.7413 76.1075 44.2267 75.9901 44.824C75.8835 45.4213 75.8301 46.152 75.8301 47.016C75.8301 47.912 75.8835 48.664 75.9901 49.272C76.0968 49.88 76.3208 50.3707 76.6621 50.744C77.0141 51.1173 77.5261 51.304 78.1981 51.304C78.8701 51.304 79.3768 51.1173 79.7181 50.744C80.0701 50.3707 80.2995 49.88 80.4061 49.272C80.5128 48.664 80.5661 47.912 80.5661 47.016ZM84.0481 43V41.336H87.3761V53H85.5361V43H84.0481Z" fill="black"/>
<rect x="97.5" y="32.5" width="29" height="29" fill="#D9D9D9" stroke="black"/>
<path d="M101.806 50.568V49.192L107.182 41.48H109.39V48.984H110.878V50.568H109.39V53H107.598V50.568H101.806ZM107.678 43.336L103.902 48.984H107.678V43.336ZM112.358 44.216C112.422 43.224 112.8 42.4507 113.494 41.896C114.198 41.3413 115.094 41.064 116.182 41.064C116.928 41.064 117.574 41.1973 118.118 41.464C118.662 41.7307 119.072 42.0933 119.35 42.552C119.627 43.0107 119.766 43.528 119.766 44.104C119.766 44.7653 119.59 45.3307 119.238 45.8C118.886 46.2693 118.464 46.584 117.974 46.744V46.808C118.603 47 119.094 47.352 119.446 47.864C119.798 48.3653 119.974 49.0107 119.974 49.8C119.974 50.4293 119.83 50.9893 119.542 51.48C119.254 51.9707 118.827 52.36 118.262 52.648C117.696 52.9253 117.019 53.064 116.23 53.064C115.078 53.064 114.128 52.7707 113.382 52.184C112.646 51.5867 112.251 50.7333 112.198 49.624H113.958C114 50.1893 114.219 50.6533 114.614 51.016C115.008 51.368 115.542 51.544 116.214 51.544C116.864 51.544 117.366 51.368 117.718 51.016C118.07 50.6533 118.246 50.1893 118.246 49.624C118.246 48.8773 118.006 48.3493 117.526 48.04C117.056 47.72 116.331 47.56 115.35 47.56H114.934V46.056H115.366C116.23 46.0453 116.886 45.9013 117.334 45.624C117.792 45.3467 118.022 44.9093 118.022 44.312C118.022 43.8 117.856 43.3947 117.526 43.096C117.195 42.7867 116.726 42.632 116.118 42.632C115.52 42.632 115.056 42.7867 114.726 43.096C114.395 43.3947 114.198 43.768 114.134 44.216H112.358Z" fill="black"/>
<rect x="133.5" y="32.5" width="29" height="29" fill="#D9D9D9" stroke="black"/>
<path d="M137.822 43V41.336H141.15V53H139.31V43H137.822ZM145.623 46.904C144.514 46.3493 143.959 45.4747 143.959 44.28C143.959 43.704 144.103 43.176 144.391 42.696C144.679 42.216 145.111 41.8373 145.687 41.56C146.263 41.272 146.967 41.128 147.799 41.128C148.621 41.128 149.319 41.272 149.895 41.56C150.482 41.8373 150.919 42.216 151.207 42.696C151.495 43.176 151.639 43.704 151.639 44.28C151.639 44.8773 151.485 45.4053 151.175 45.864C150.877 46.312 150.477 46.6587 149.975 46.904C150.583 47.128 151.063 47.496 151.415 48.008C151.767 48.5093 151.943 49.1013 151.943 49.784C151.943 50.4773 151.767 51.0907 151.415 51.624C151.063 52.1573 150.573 52.568 149.943 52.856C149.314 53.144 148.599 53.288 147.799 53.288C146.999 53.288 146.285 53.144 145.655 52.856C145.037 52.568 144.551 52.1573 144.199 51.624C143.847 51.0907 143.671 50.4773 143.671 49.784C143.671 49.0907 143.847 48.4933 144.199 47.992C144.551 47.4907 145.026 47.128 145.623 46.904ZM149.895 44.504C149.895 43.9067 149.709 43.448 149.335 43.128C148.962 42.808 148.45 42.648 147.799 42.648C147.159 42.648 146.653 42.808 146.279 43.128C145.906 43.448 145.719 43.912 145.719 44.52C145.719 45.0533 145.911 45.4907 146.295 45.832C146.69 46.1627 147.191 46.328 147.799 46.328C148.407 46.328 148.909 46.1573 149.303 45.816C149.698 45.4747 149.895 45.0373 149.895 44.504ZM147.799 47.704C147.095 47.704 146.519 47.88 146.071 48.232C145.634 48.5733 145.415 49.0693 145.415 49.72C145.415 50.328 145.629 50.824 146.055 51.208C146.482 51.5813 147.063 51.768 147.799 51.768C148.525 51.768 149.095 51.576 149.511 51.192C149.938 50.808 150.151 50.3173 150.151 49.72C150.151 49.08 149.933 48.584 149.495 48.232C149.069 47.88 148.503 47.704 147.799 47.704Z" fill="black"/>
<line x1="13.5" y1="62" x2="13.5" y2="65" stroke="#0CA1E3"/>
<line x1="47.5" y1="62" x2="47.5" y2="65" stroke="#0CA1E3"/>
<line x1="13" y1="64.5" x2="47" y2="64.5" stroke="#0CA1E3"/>
<line x1="80.5" y1="62" x2="80.5" y2="65" stroke="#0CA1E3"/>
<line x1="114.5" y1="62" x2="114.5" y2="65" stroke="#0CA1E3"/>
<line x1="80" y1="64.5" x2="114" y2="64.5" stroke="#0CA1E3"/>
</svg>
