<svg width="258" height="45" viewBox="0 0 258 45" fill="none" xmlns="http://www.w3.org/2000/svg">
<path d="M70.5 0.5V44.5H26.5V0.5H70.5Z" fill="#D9D9D9" stroke="black"/>
<path d="M39.4274 21.772C39.4274 19.2347 39.8528 17.2547 40.7034 15.832C41.5688 14.3947 43.0501 13.676 45.1474 13.676C47.2448 13.676 48.7188 14.3947 49.5694 15.832C50.4348 17.2547 50.8674 19.2347 50.8674 21.772C50.8674 24.3387 50.4348 26.348 49.5694 27.8C48.7188 29.2373 47.2448 29.956 45.1474 29.956C43.0501 29.956 41.5688 29.2373 40.7034 27.8C39.8528 26.348 39.4274 24.3387 39.4274 21.772ZM48.4034 21.772C48.4034 20.584 48.3228 19.5793 48.1614 18.758C48.0148 17.9367 47.7068 17.2693 47.2374 16.756C46.7681 16.228 46.0714 15.964 45.1474 15.964C44.2234 15.964 43.5268 16.228 43.0574 16.756C42.5881 17.2693 42.2728 17.9367 42.1114 18.758C41.9648 19.5793 41.8914 20.584 41.8914 21.772C41.8914 23.004 41.9648 24.038 42.1114 24.874C42.2581 25.71 42.5661 26.3847 43.0354 26.898C43.5194 27.4113 44.2234 27.668 45.1474 27.668C46.0714 27.668 46.7681 27.4113 47.2374 26.898C47.7214 26.3847 48.0368 25.71 48.1834 24.874C48.3301 24.038 48.4034 23.004 48.4034 21.772ZM53.1912 16.25V13.962H57.7672V30H55.2372V16.25H53.1912Z" fill="black"/>
<path d="M110.5 0.5V44.5H66.5V0.5H110.5Z" fill="#D9D9D9" stroke="black"/>
<path d="M72.6511 21.772C72.6511 19.2347 73.0764 17.2547 73.9271 15.832C74.7924 14.3947 76.2737 13.676 78.3711 13.676C80.4684 13.676 81.9424 14.3947 82.7931 15.832C83.6584 17.2547 84.0911 19.2347 84.0911 21.772C84.0911 24.3387 83.6584 26.348 82.7931 27.8C81.9424 29.2373 80.4684 29.956 78.3711 29.956C76.2737 29.956 74.7924 29.2373 73.9271 27.8C73.0764 26.348 72.6511 24.3387 72.6511 21.772ZM81.6271 21.772C81.6271 20.584 81.5464 19.5793 81.3851 18.758C81.2384 17.9367 80.9304 17.2693 80.4611 16.756C79.9917 16.228 79.2951 15.964 78.3711 15.964C77.4471 15.964 76.7504 16.228 76.2811 16.756C75.8117 17.2693 75.4964 17.9367 75.3351 18.758C75.1884 19.5793 75.1151 20.584 75.1151 21.772C75.1151 23.004 75.1884 24.038 75.3351 24.874C75.4817 25.71 75.7897 26.3847 76.2591 26.898C76.7431 27.4113 77.4471 27.668 78.3711 27.668C79.2951 27.668 79.9917 27.4113 80.4611 26.898C80.9451 26.3847 81.2604 25.71 81.4071 24.874C81.5537 24.038 81.6271 23.004 81.6271 21.772ZM86.4368 26.656V24.764L93.8288 14.16H96.8648V24.478H98.9108V26.656H96.8648V30H94.4008V26.656H86.4368ZM94.5108 16.712L89.3188 24.478H94.5108V16.712Z" fill="black"/>
<path d="M150.5 0.5V44.5H106.5V0.5H150.5Z" fill="#D9D9D9" stroke="black"/>
<path d="M116.296 16.25V13.962H120.872V30H118.342V16.25H116.296ZM125.703 26.59C127.111 25.3727 128.218 24.3753 129.025 23.598C129.846 22.806 130.528 21.9847 131.071 21.134C131.614 20.2833 131.885 19.4327 131.885 18.582C131.885 17.702 131.672 17.0127 131.247 16.514C130.836 16.0153 130.184 15.766 129.289 15.766C128.424 15.766 127.749 16.0447 127.265 16.602C126.796 17.1447 126.546 17.878 126.517 18.802H124.097C124.141 17.13 124.64 15.854 125.593 14.974C126.561 14.0793 127.786 13.632 129.267 13.632C130.866 13.632 132.112 14.072 133.007 14.952C133.916 15.832 134.371 17.0053 134.371 18.472C134.371 19.528 134.1 20.5473 133.557 21.53C133.029 22.498 132.391 23.3707 131.643 24.148C130.91 24.9107 129.971 25.798 128.827 26.81L127.837 27.69H134.811V29.78H124.119V27.954L125.703 26.59Z" fill="black"/>
<path d="M190.5 0.5V44.5H146.5V0.5H190.5Z" fill="#D9D9D9" stroke="black"/>
<path d="M156.13 16.25V13.962H160.706V30H158.176V16.25H156.13ZM166.857 21.618C165.332 20.8553 164.569 19.6527 164.569 18.01C164.569 17.218 164.767 16.492 165.163 15.832C165.559 15.172 166.153 14.6513 166.945 14.27C167.737 13.874 168.705 13.676 169.849 13.676C170.978 13.676 171.939 13.874 172.731 14.27C173.538 14.6513 174.139 15.172 174.535 15.832C174.931 16.492 175.129 17.218 175.129 18.01C175.129 18.8313 174.916 19.5573 174.491 20.188C174.08 20.804 173.53 21.2807 172.841 21.618C173.677 21.926 174.337 22.432 174.821 23.136C175.305 23.8253 175.547 24.6393 175.547 25.578C175.547 26.5313 175.305 27.3747 174.821 28.108C174.337 28.8413 173.662 29.406 172.797 29.802C171.932 30.198 170.949 30.396 169.849 30.396C168.749 30.396 167.766 30.198 166.901 29.802C166.05 29.406 165.383 28.8413 164.899 28.108C164.415 27.3747 164.173 26.5313 164.173 25.578C164.173 24.6247 164.415 23.8033 164.899 23.114C165.383 22.4247 166.036 21.926 166.857 21.618ZM172.731 18.318C172.731 17.4967 172.474 16.866 171.961 16.426C171.448 15.986 170.744 15.766 169.849 15.766C168.969 15.766 168.272 15.986 167.759 16.426C167.246 16.866 166.989 17.504 166.989 18.34C166.989 19.0733 167.253 19.6747 167.781 20.144C168.324 20.5987 169.013 20.826 169.849 20.826C170.685 20.826 171.374 20.5913 171.917 20.122C172.46 19.6527 172.731 19.0513 172.731 18.318ZM169.849 22.718C168.881 22.718 168.089 22.96 167.473 23.444C166.872 23.9133 166.571 24.5953 166.571 25.49C166.571 26.326 166.864 27.008 167.451 27.536C168.038 28.0493 168.837 28.306 169.849 28.306C170.846 28.306 171.631 28.042 172.203 27.514C172.79 26.986 173.083 26.3113 173.083 25.49C173.083 24.61 172.782 23.928 172.181 23.444C171.594 22.96 170.817 22.718 169.849 22.718Z" fill="black"/>
<path d="M230.5 0.5V44.5H186.5V0.5H230.5Z" fill="#D9D9D9" stroke="black"/>
<path d="M193.359 26.656V24.764L200.751 14.16H203.787V24.478H205.833V26.656H203.787V30H201.323V26.656H193.359ZM201.433 16.712L196.241 24.478H201.433V16.712ZM207.867 17.922C207.955 16.558 208.475 15.4947 209.429 14.732C210.397 13.9693 211.629 13.588 213.125 13.588C214.151 13.588 215.039 13.7713 215.787 14.138C216.535 14.5047 217.099 15.0033 217.481 15.634C217.862 16.2647 218.053 16.976 218.053 17.768C218.053 18.6773 217.811 19.4547 217.327 20.1C216.843 20.7453 216.263 21.178 215.589 21.398V21.486C216.454 21.75 217.129 22.234 217.613 22.938C218.097 23.6273 218.339 24.5147 218.339 25.6C218.339 26.4653 218.141 27.2353 217.745 27.91C217.349 28.5847 216.762 29.12 215.985 29.516C215.207 29.8973 214.276 30.088 213.191 30.088C211.607 30.088 210.301 29.6847 209.275 28.878C208.263 28.0567 207.72 26.8833 207.647 25.358H210.067C210.125 26.1353 210.426 26.7733 210.969 27.272C211.511 27.756 212.245 27.998 213.169 27.998C214.063 27.998 214.753 27.756 215.237 27.272C215.721 26.7733 215.963 26.1353 215.963 25.358C215.963 24.3313 215.633 23.6053 214.973 23.18C214.327 22.74 213.33 22.52 211.981 22.52H211.409V20.452H212.003C213.191 20.4373 214.093 20.2393 214.709 19.858C215.339 19.4767 215.655 18.8753 215.655 18.054C215.655 17.35 215.427 16.7927 214.973 16.382C214.518 15.9567 213.873 15.744 213.037 15.744C212.215 15.744 211.577 15.9567 211.123 16.382C210.668 16.7927 210.397 17.306 210.309 17.922H207.867Z" fill="black"/>
<line y1="22" x2="23.2271" y2="22" stroke="#0CA1E3"/>
<path d="M26.5449 22L16.5905 24.5981V19.4019L26.5449 22Z" fill="#0CA1E3"/>
<line x1="231" y1="22" x2="254.227" y2="22" stroke="#0CA1E3"/>
<path d="M257.545 22L247.59 24.5981V19.4019L257.545 22Z" fill="#0CA1E3"/>
</svg>
