<svg width="200" height="59" viewBox="0 0 200 59" fill="none" xmlns="http://www.w3.org/2000/svg">
<path d="M39.5 0.5V39.5H0.5V0.5H39.5Z" fill="#D9D9D9" stroke="black"/>
<path d="M9.42742 19.772C9.42742 17.2347 9.85276 15.2547 10.7034 13.832C11.5688 12.3947 13.0501 11.676 15.1474 11.676C17.2448 11.676 18.7188 12.3947 19.5694 13.832C20.4348 15.2547 20.8674 17.2347 20.8674 19.772C20.8674 22.3387 20.4348 24.348 19.5694 25.8C18.7188 27.2373 17.2448 27.956 15.1474 27.956C13.0501 27.956 11.5688 27.2373 10.7034 25.8C9.85276 24.348 9.42742 22.3387 9.42742 19.772ZM18.4034 19.772C18.4034 18.584 18.3228 17.5793 18.1614 16.758C18.0148 15.9367 17.7068 15.2693 17.2374 14.756C16.7681 14.228 16.0714 13.964 15.1474 13.964C14.2234 13.964 13.5268 14.228 13.0574 14.756C12.5881 15.2693 12.2728 15.9367 12.1114 16.758C11.9648 17.5793 11.8914 18.584 11.8914 19.772C11.8914 21.004 11.9648 22.038 12.1114 22.874C12.2581 23.71 12.5661 24.3847 13.0354 24.898C13.5194 25.4113 14.2234 25.668 15.1474 25.668C16.0714 25.668 16.7681 25.4113 17.2374 24.898C17.7214 24.3847 18.0368 23.71 18.1834 22.874C18.3301 22.038 18.4034 21.004 18.4034 19.772ZM23.1912 14.25V11.962H27.7672V28H25.2372V14.25H23.1912Z" fill="black"/>
<path d="M79.5 0.5V39.5H40.5V0.5H79.5Z" fill="#D9D9D9" stroke="black"/>
<path d="M46.6511 19.772C46.6511 17.2347 47.0764 15.2547 47.9271 13.832C48.7924 12.3947 50.2737 11.676 52.3711 11.676C54.4684 11.676 55.9424 12.3947 56.7931 13.832C57.6584 15.2547 58.0911 17.2347 58.0911 19.772C58.0911 22.3387 57.6584 24.348 56.7931 25.8C55.9424 27.2373 54.4684 27.956 52.3711 27.956C50.2737 27.956 48.7924 27.2373 47.9271 25.8C47.0764 24.348 46.6511 22.3387 46.6511 19.772ZM55.6271 19.772C55.6271 18.584 55.5464 17.5793 55.3851 16.758C55.2384 15.9367 54.9304 15.2693 54.4611 14.756C53.9917 14.228 53.2951 13.964 52.3711 13.964C51.4471 13.964 50.7504 14.228 50.2811 14.756C49.8117 15.2693 49.4964 15.9367 49.3351 16.758C49.1884 17.5793 49.1151 18.584 49.1151 19.772C49.1151 21.004 49.1884 22.038 49.3351 22.874C49.4817 23.71 49.7897 24.3847 50.2591 24.898C50.7431 25.4113 51.4471 25.668 52.3711 25.668C53.2951 25.668 53.9917 25.4113 54.4611 24.898C54.9451 24.3847 55.2604 23.71 55.4071 22.874C55.5537 22.038 55.6271 21.004 55.6271 19.772ZM60.4368 24.656V22.764L67.8288 12.16H70.8648V22.478H72.9108V24.656H70.8648V28H68.4008V24.656H60.4368ZM68.5108 14.712L63.3188 22.478H68.5108V14.712Z" fill="black"/>
<path d="M119.5 0.5V39.5H80.5V0.5H119.5Z" fill="#D9D9D9" stroke="black"/>
<path d="M90.2957 14.25V11.962H94.8717V28H92.3417V14.25H90.2957ZM99.7031 24.59C101.111 23.3727 102.218 22.3753 103.025 21.598C103.846 20.806 104.528 19.9847 105.071 19.134C105.614 18.2833 105.885 17.4327 105.885 16.582C105.885 15.702 105.672 15.0127 105.247 14.514C104.836 14.0153 104.184 13.766 103.289 13.766C102.424 13.766 101.749 14.0447 101.265 14.602C100.796 15.1447 100.546 15.878 100.517 16.802H98.0971C98.1411 15.13 98.6397 13.854 99.5931 12.974C100.561 12.0793 101.786 11.632 103.267 11.632C104.866 11.632 106.112 12.072 107.007 12.952C107.916 13.832 108.371 15.0053 108.371 16.472C108.371 17.528 108.1 18.5473 107.557 19.53C107.029 20.498 106.391 21.3707 105.643 22.148C104.91 22.9107 103.971 23.798 102.827 24.81L101.837 25.69H108.811V27.78H98.1191V25.954L99.7031 24.59Z" fill="black"/>
<path d="M159.5 0.5V39.5H120.5V0.5H159.5Z" fill="#D9D9D9" stroke="black"/>
<path d="M129.13 14.25V11.962H133.706V28H131.176V14.25H129.13ZM139.857 19.618C138.332 18.8553 137.569 17.6527 137.569 16.01C137.569 15.218 137.767 14.492 138.163 13.832C138.559 13.172 139.153 12.6513 139.945 12.27C140.737 11.874 141.705 11.676 142.849 11.676C143.978 11.676 144.939 11.874 145.731 12.27C146.538 12.6513 147.139 13.172 147.535 13.832C147.931 14.492 148.129 15.218 148.129 16.01C148.129 16.8313 147.916 17.5573 147.491 18.188C147.08 18.804 146.53 19.2807 145.841 19.618C146.677 19.926 147.337 20.432 147.821 21.136C148.305 21.8253 148.547 22.6393 148.547 23.578C148.547 24.5313 148.305 25.3747 147.821 26.108C147.337 26.8413 146.662 27.406 145.797 27.802C144.932 28.198 143.949 28.396 142.849 28.396C141.749 28.396 140.766 28.198 139.901 27.802C139.05 27.406 138.383 26.8413 137.899 26.108C137.415 25.3747 137.173 24.5313 137.173 23.578C137.173 22.6247 137.415 21.8033 137.899 21.114C138.383 20.4247 139.036 19.926 139.857 19.618ZM145.731 16.318C145.731 15.4967 145.474 14.866 144.961 14.426C144.448 13.986 143.744 13.766 142.849 13.766C141.969 13.766 141.272 13.986 140.759 14.426C140.246 14.866 139.989 15.504 139.989 16.34C139.989 17.0733 140.253 17.6747 140.781 18.144C141.324 18.5987 142.013 18.826 142.849 18.826C143.685 18.826 144.374 18.5913 144.917 18.122C145.46 17.6527 145.731 17.0513 145.731 16.318ZM142.849 20.718C141.881 20.718 141.089 20.96 140.473 21.444C139.872 21.9133 139.571 22.5953 139.571 23.49C139.571 24.326 139.864 25.008 140.451 25.536C141.038 26.0493 141.837 26.306 142.849 26.306C143.846 26.306 144.631 26.042 145.203 25.514C145.79 24.986 146.083 24.3113 146.083 23.49C146.083 22.61 145.782 21.928 145.181 21.444C144.594 20.96 143.817 20.718 142.849 20.718Z" fill="black"/>
<path d="M199.5 0.5V39.5H160.5V0.5H199.5Z" fill="#D9D9D9" stroke="black"/>
<path d="M166.359 24.656V22.764L173.751 12.16H176.787V22.478H178.833V24.656H176.787V28H174.323V24.656H166.359ZM174.433 14.712L169.241 22.478H174.433V14.712ZM180.867 15.922C180.955 14.558 181.475 13.4947 182.429 12.732C183.397 11.9693 184.629 11.588 186.125 11.588C187.151 11.588 188.039 11.7713 188.787 12.138C189.535 12.5047 190.099 13.0033 190.481 13.634C190.862 14.2647 191.053 14.976 191.053 15.768C191.053 16.6773 190.811 17.4547 190.327 18.1C189.843 18.7453 189.263 19.178 188.589 19.398V19.486C189.454 19.75 190.129 20.234 190.613 20.938C191.097 21.6273 191.339 22.5147 191.339 23.6C191.339 24.4653 191.141 25.2353 190.745 25.91C190.349 26.5847 189.762 27.12 188.985 27.516C188.207 27.8973 187.276 28.088 186.191 28.088C184.607 28.088 183.301 27.6847 182.275 26.878C181.263 26.0567 180.72 24.8833 180.647 23.358H183.067C183.125 24.1353 183.426 24.7733 183.969 25.272C184.511 25.756 185.245 25.998 186.169 25.998C187.063 25.998 187.753 25.756 188.237 25.272C188.721 24.7733 188.963 24.1353 188.963 23.358C188.963 22.3313 188.633 21.6053 187.973 21.18C187.327 20.74 186.33 20.52 184.981 20.52H184.409V18.452H185.003C186.191 18.4373 187.093 18.2393 187.709 17.858C188.339 17.4767 188.655 16.8753 188.655 16.054C188.655 15.35 188.427 14.7927 187.973 14.382C187.518 13.9567 186.873 13.744 186.037 13.744C185.215 13.744 184.577 13.9567 184.123 14.382C183.668 14.7927 183.397 15.306 183.309 15.922H180.867Z" fill="black"/>
<line x1="100" y1="46.5455" x2="100" y2="40.8182" stroke="#0CA1E3"/>
<path d="M100 40L102.598 42.4545H97.4019L100 40Z" fill="#0CA1E3"/>
<path d="M98.4538 49.05V56H97.3138V51.24L95.1938 56H94.4038L92.2738 51.24V56H91.1338V49.05H92.3638L94.8038 54.5L97.2338 49.05H98.4538ZM100.532 49.76C100.325 49.76 100.152 49.69 100.012 49.55C99.8721 49.41 99.8021 49.2367 99.8021 49.03C99.8021 48.8233 99.8721 48.65 100.012 48.51C100.152 48.37 100.325 48.3 100.532 48.3C100.732 48.3 100.902 48.37 101.042 48.51C101.182 48.65 101.252 48.8233 101.252 49.03C101.252 49.2367 101.182 49.41 101.042 49.55C100.902 49.69 100.732 49.76 100.532 49.76ZM101.092 50.49V56H99.9521V50.49H101.092ZM102.209 53.22C102.209 52.6667 102.322 52.1767 102.549 51.75C102.782 51.3233 103.096 50.9933 103.489 50.76C103.889 50.52 104.332 50.4 104.819 50.4C105.179 50.4 105.532 50.48 105.879 50.64C106.232 50.7933 106.512 51 106.719 51.26V48.6H107.869V56H106.719V55.17C106.532 55.4367 106.272 55.6567 105.939 55.83C105.612 56.0033 105.236 56.09 104.809 56.09C104.329 56.09 103.889 55.97 103.489 55.73C103.096 55.4833 102.782 55.1433 102.549 54.71C102.322 54.27 102.209 53.7733 102.209 53.22ZM106.719 53.24C106.719 52.86 106.639 52.53 106.479 52.25C106.326 51.97 106.122 51.7567 105.869 51.61C105.616 51.4633 105.342 51.39 105.049 51.39C104.756 51.39 104.482 51.4633 104.229 51.61C103.976 51.75 103.769 51.96 103.609 52.24C103.456 52.5133 103.379 52.84 103.379 53.22C103.379 53.6 103.456 53.9333 103.609 54.22C103.769 54.5067 103.976 54.7267 104.229 54.88C104.489 55.0267 104.762 55.1 105.049 55.1C105.342 55.1 105.616 55.0267 105.869 54.88C106.122 54.7333 106.326 54.52 106.479 54.24C106.639 53.9533 106.719 53.62 106.719 53.24Z" fill="#0CA1E3"/>
<line x1="180" y1="46.5455" x2="180" y2="40.8182" stroke="#0CA1E3"/>
<path d="M180 40L182.598 42.4545H177.402L180 40Z" fill="#0CA1E3"/>
<path d="M174.321 49.05V56H173.181V52.96H169.911V56H168.771V49.05H169.911V52.03H173.181V49.05H174.321ZM176.401 49.76C176.195 49.76 176.021 49.69 175.881 49.55C175.741 49.41 175.671 49.2367 175.671 49.03C175.671 48.8233 175.741 48.65 175.881 48.51C176.021 48.37 176.195 48.3 176.401 48.3C176.601 48.3 176.771 48.37 176.911 48.51C177.051 48.65 177.121 48.8233 177.121 49.03C177.121 49.2367 177.051 49.41 176.911 49.55C176.771 49.69 176.601 49.76 176.401 49.76ZM176.961 50.49V56H175.821V50.49H176.961ZM180.678 50.4C181.105 50.4 181.481 50.4867 181.808 50.66C182.141 50.8267 182.401 51.0367 182.588 51.29V50.49H183.738V56.09C183.738 56.5967 183.631 57.0467 183.418 57.44C183.205 57.84 182.895 58.1533 182.488 58.38C182.088 58.6067 181.608 58.72 181.048 58.72C180.301 58.72 179.681 58.5433 179.188 58.19C178.695 57.8433 178.415 57.37 178.348 56.77H179.478C179.565 57.0567 179.748 57.2867 180.028 57.46C180.315 57.64 180.655 57.73 181.048 57.73C181.508 57.73 181.878 57.59 182.158 57.31C182.445 57.03 182.588 56.6233 182.588 56.09V55.17C182.395 55.43 182.131 55.65 181.798 55.83C181.471 56.0033 181.098 56.09 180.678 56.09C180.198 56.09 179.758 55.97 179.358 55.73C178.965 55.4833 178.651 55.1433 178.418 54.71C178.191 54.27 178.078 53.7733 178.078 53.22C178.078 52.6667 178.191 52.1767 178.418 51.75C178.651 51.3233 178.965 50.9933 179.358 50.76C179.758 50.52 180.198 50.4 180.678 50.4ZM182.588 53.24C182.588 52.86 182.508 52.53 182.348 52.25C182.195 51.97 181.991 51.7567 181.738 51.61C181.485 51.4633 181.211 51.39 180.918 51.39C180.625 51.39 180.351 51.4633 180.098 51.61C179.845 51.75 179.638 51.96 179.478 52.24C179.325 52.5133 179.248 52.84 179.248 53.22C179.248 53.6 179.325 53.9333 179.478 54.22C179.638 54.5067 179.845 54.7267 180.098 54.88C180.358 55.0267 180.631 55.1 180.918 55.1C181.211 55.1 181.485 55.0267 181.738 54.88C181.991 54.7333 182.195 54.52 182.348 54.24C182.508 53.9533 182.588 53.62 182.588 53.24ZM188.085 50.4C188.505 50.4 188.879 50.49 189.205 50.67C189.539 50.85 189.799 51.1167 189.985 51.47C190.179 51.8233 190.275 52.25 190.275 52.75V56H189.145V52.92C189.145 52.4267 189.022 52.05 188.775 51.79C188.529 51.5233 188.192 51.39 187.765 51.39C187.339 51.39 186.999 51.5233 186.745 51.79C186.499 52.05 186.375 52.4267 186.375 52.92V56H185.235V48.6H186.375V51.13C186.569 50.8967 186.812 50.7167 187.105 50.59C187.405 50.4633 187.732 50.4 188.085 50.4Z" fill="#0CA1E3"/>
<line x1="20" y1="47.5455" x2="20" y2="41.8182" stroke="#0CA1E3"/>
<path d="M20 41L22.5981 43.4545H17.4019L20 41Z" fill="#0CA1E3"/>
<path d="M13.3539 56.08H15.7039V57H12.2139V50.05H13.3539V56.08ZM19.0472 57.09C18.5272 57.09 18.0572 56.9733 17.6372 56.74C17.2172 56.5 16.8872 56.1667 16.6472 55.74C16.4072 55.3067 16.2872 54.8067 16.2872 54.24C16.2872 53.68 16.4106 53.1833 16.6572 52.75C16.9039 52.3167 17.2406 51.9833 17.6672 51.75C18.0939 51.5167 18.5706 51.4 19.0972 51.4C19.6239 51.4 20.1006 51.5167 20.5272 51.75C20.9539 51.9833 21.2906 52.3167 21.5372 52.75C21.7839 53.1833 21.9072 53.68 21.9072 54.24C21.9072 54.8 21.7806 55.2967 21.5272 55.73C21.2739 56.1633 20.9272 56.5 20.4872 56.74C20.0539 56.9733 19.5739 57.09 19.0472 57.09ZM19.0472 56.1C19.3406 56.1 19.6139 56.03 19.8672 55.89C20.1272 55.75 20.3372 55.54 20.4972 55.26C20.6572 54.98 20.7372 54.64 20.7372 54.24C20.7372 53.84 20.6606 53.5033 20.5072 53.23C20.3539 52.95 20.1506 52.74 19.8972 52.6C19.6439 52.46 19.3706 52.39 19.0772 52.39C18.7839 52.39 18.5106 52.46 18.2572 52.6C18.0106 52.74 17.8139 52.95 17.6672 53.23C17.5206 53.5033 17.4472 53.84 17.4472 54.24C17.4472 54.8333 17.5972 55.2933 17.8972 55.62C18.2039 55.94 18.5872 56.1 19.0472 56.1ZM30.4342 51.49L28.7242 57H27.5242L26.4142 52.93L25.3042 57H24.1042L22.3842 51.49H23.5442L24.6942 55.92L25.8642 51.49H27.0542L28.1742 55.9L29.3142 51.49H30.4342Z" fill="#0CA1E3"/>
</svg>
