<svg width="200" height="47" viewBox="0 0 200 47" fill="none" xmlns="http://www.w3.org/2000/svg">
<path d="M39.5 0.5V39.5H0.5V0.5H39.5Z" fill="#D9D9D9" stroke="black"/>
<path d="M9.42742 19.772C9.42742 17.2347 9.85276 15.2547 10.7034 13.832C11.5688 12.3947 13.0501 11.676 15.1474 11.676C17.2448 11.676 18.7188 12.3947 19.5694 13.832C20.4348 15.2547 20.8674 17.2347 20.8674 19.772C20.8674 22.3387 20.4348 24.348 19.5694 25.8C18.7188 27.2373 17.2448 27.956 15.1474 27.956C13.0501 27.956 11.5688 27.2373 10.7034 25.8C9.85276 24.348 9.42742 22.3387 9.42742 19.772ZM18.4034 19.772C18.4034 18.584 18.3228 17.5793 18.1614 16.758C18.0148 15.9367 17.7068 15.2693 17.2374 14.756C16.7681 14.228 16.0714 13.964 15.1474 13.964C14.2234 13.964 13.5268 14.228 13.0574 14.756C12.5881 15.2693 12.2728 15.9367 12.1114 16.758C11.9648 17.5793 11.8914 18.584 11.8914 19.772C11.8914 21.004 11.9648 22.038 12.1114 22.874C12.2581 23.71 12.5661 24.3847 13.0354 24.898C13.5194 25.4113 14.2234 25.668 15.1474 25.668C16.0714 25.668 16.7681 25.4113 17.2374 24.898C17.7214 24.3847 18.0368 23.71 18.1834 22.874C18.3301 22.038 18.4034 21.004 18.4034 19.772ZM23.1912 14.25V11.962H27.7672V28H25.2372V14.25H23.1912Z" fill="black"/>
<path d="M79.5 0.5V39.5H40.5V0.5H79.5Z" fill="#D9D9D9" stroke="black"/>
<path d="M46.6511 19.772C46.6511 17.2347 47.0764 15.2547 47.9271 13.832C48.7924 12.3947 50.2737 11.676 52.3711 11.676C54.4684 11.676 55.9424 12.3947 56.7931 13.832C57.6584 15.2547 58.0911 17.2347 58.0911 19.772C58.0911 22.3387 57.6584 24.348 56.7931 25.8C55.9424 27.2373 54.4684 27.956 52.3711 27.956C50.2737 27.956 48.7924 27.2373 47.9271 25.8C47.0764 24.348 46.6511 22.3387 46.6511 19.772ZM55.6271 19.772C55.6271 18.584 55.5464 17.5793 55.3851 16.758C55.2384 15.9367 54.9304 15.2693 54.4611 14.756C53.9917 14.228 53.2951 13.964 52.3711 13.964C51.4471 13.964 50.7504 14.228 50.2811 14.756C49.8117 15.2693 49.4964 15.9367 49.3351 16.758C49.1884 17.5793 49.1151 18.584 49.1151 19.772C49.1151 21.004 49.1884 22.038 49.3351 22.874C49.4817 23.71 49.7897 24.3847 50.2591 24.898C50.7431 25.4113 51.4471 25.668 52.3711 25.668C53.2951 25.668 53.9917 25.4113 54.4611 24.898C54.9451 24.3847 55.2604 23.71 55.4071 22.874C55.5537 22.038 55.6271 21.004 55.6271 19.772ZM60.4368 24.656V22.764L67.8288 12.16H70.8648V22.478H72.9108V24.656H70.8648V28H68.4008V24.656H60.4368ZM68.5108 14.712L63.3188 22.478H68.5108V14.712Z" fill="black"/>
<path d="M119.5 0.5V39.5H80.5V0.5H119.5Z" fill="#D9D9D9" stroke="black"/>
<path d="M90.2957 14.25V11.962H94.8717V28H92.3417V14.25H90.2957ZM99.7031 24.59C101.111 23.3727 102.218 22.3753 103.025 21.598C103.846 20.806 104.528 19.9847 105.071 19.134C105.614 18.2833 105.885 17.4327 105.885 16.582C105.885 15.702 105.672 15.0127 105.247 14.514C104.836 14.0153 104.184 13.766 103.289 13.766C102.424 13.766 101.749 14.0447 101.265 14.602C100.796 15.1447 100.546 15.878 100.517 16.802H98.0971C98.1411 15.13 98.6397 13.854 99.5931 12.974C100.561 12.0793 101.786 11.632 103.267 11.632C104.866 11.632 106.112 12.072 107.007 12.952C107.916 13.832 108.371 15.0053 108.371 16.472C108.371 17.528 108.1 18.5473 107.557 19.53C107.029 20.498 106.391 21.3707 105.643 22.148C104.91 22.9107 103.971 23.798 102.827 24.81L101.837 25.69H108.811V27.78H98.1191V25.954L99.7031 24.59Z" fill="black"/>
<path d="M159.5 0.5V39.5H120.5V0.5H159.5Z" fill="#D9D9D9" stroke="black"/>
<path d="M129.13 14.25V11.962H133.706V28H131.176V14.25H129.13ZM139.857 19.618C138.332 18.8553 137.569 17.6527 137.569 16.01C137.569 15.218 137.767 14.492 138.163 13.832C138.559 13.172 139.153 12.6513 139.945 12.27C140.737 11.874 141.705 11.676 142.849 11.676C143.978 11.676 144.939 11.874 145.731 12.27C146.538 12.6513 147.139 13.172 147.535 13.832C147.931 14.492 148.129 15.218 148.129 16.01C148.129 16.8313 147.916 17.5573 147.491 18.188C147.08 18.804 146.53 19.2807 145.841 19.618C146.677 19.926 147.337 20.432 147.821 21.136C148.305 21.8253 148.547 22.6393 148.547 23.578C148.547 24.5313 148.305 25.3747 147.821 26.108C147.337 26.8413 146.662 27.406 145.797 27.802C144.932 28.198 143.949 28.396 142.849 28.396C141.749 28.396 140.766 28.198 139.901 27.802C139.05 27.406 138.383 26.8413 137.899 26.108C137.415 25.3747 137.173 24.5313 137.173 23.578C137.173 22.6247 137.415 21.8033 137.899 21.114C138.383 20.4247 139.036 19.926 139.857 19.618ZM145.731 16.318C145.731 15.4967 145.474 14.866 144.961 14.426C144.448 13.986 143.744 13.766 142.849 13.766C141.969 13.766 141.272 13.986 140.759 14.426C140.246 14.866 139.989 15.504 139.989 16.34C139.989 17.0733 140.253 17.6747 140.781 18.144C141.324 18.5987 142.013 18.826 142.849 18.826C143.685 18.826 144.374 18.5913 144.917 18.122C145.46 17.6527 145.731 17.0513 145.731 16.318ZM142.849 20.718C141.881 20.718 141.089 20.96 140.473 21.444C139.872 21.9133 139.571 22.5953 139.571 23.49C139.571 24.326 139.864 25.008 140.451 25.536C141.038 26.0493 141.837 26.306 142.849 26.306C143.846 26.306 144.631 26.042 145.203 25.514C145.79 24.986 146.083 24.3113 146.083 23.49C146.083 22.61 145.782 21.928 145.181 21.444C144.594 20.96 143.817 20.718 142.849 20.718Z" fill="black"/>
<path d="M199.5 0.5V39.5H160.5V0.5H199.5Z" fill="#D9D9D9" stroke="black"/>
<path d="M166.359 24.656V22.764L173.751 12.16H176.787V22.478H178.833V24.656H176.787V28H174.323V24.656H166.359ZM174.433 14.712L169.241 22.478H174.433V14.712ZM180.867 15.922C180.955 14.558 181.475 13.4947 182.429 12.732C183.397 11.9693 184.629 11.588 186.125 11.588C187.151 11.588 188.039 11.7713 188.787 12.138C189.535 12.5047 190.099 13.0033 190.481 13.634C190.862 14.2647 191.053 14.976 191.053 15.768C191.053 16.6773 190.811 17.4547 190.327 18.1C189.843 18.7453 189.263 19.178 188.589 19.398V19.486C189.454 19.75 190.129 20.234 190.613 20.938C191.097 21.6273 191.339 22.5147 191.339 23.6C191.339 24.4653 191.141 25.2353 190.745 25.91C190.349 26.5847 189.762 27.12 188.985 27.516C188.207 27.8973 187.276 28.088 186.191 28.088C184.607 28.088 183.301 27.6847 182.275 26.878C181.263 26.0567 180.72 24.8833 180.647 23.358H183.067C183.125 24.1353 183.426 24.7733 183.969 25.272C184.511 25.756 185.245 25.998 186.169 25.998C187.063 25.998 187.753 25.756 188.237 25.272C188.721 24.7733 188.963 24.1353 188.963 23.358C188.963 22.3313 188.633 21.6053 187.973 21.18C187.327 20.74 186.33 20.52 184.981 20.52H184.409V18.452H185.003C186.191 18.4373 187.093 18.2393 187.709 17.858C188.339 17.4767 188.655 16.8753 188.655 16.054C188.655 15.35 188.427 14.7927 187.973 14.382C187.518 13.9567 186.873 13.744 186.037 13.744C185.215 13.744 184.577 13.9567 184.123 14.382C183.668 14.7927 183.397 15.306 183.309 15.922H180.867Z" fill="black"/>
<line x1="16.455" y1="44" x2="72.0572" y2="44" stroke="#0CA1E3"/>
<path d="M80 44L56.1705 46.5981V41.4019L80 44Z" fill="#0CA1E3"/>
</svg>
